<svg width="20" height="21" viewBox="0 0 20 21" fill="none" xmlns="http://www.w3.org/2000/svg">
<path d="M5.83073 15.7148V6.59151C5.83067 6.39761 5.89502 6.20919 6.01366 6.05583C6.13231 5.90247 6.29853 5.79287 6.48623 5.74422C6.67392 5.69558 6.87246 5.71067 7.05065 5.7871C7.22885 5.86353 7.37661 5.99699 7.47073 6.16651L12.5241 15.2632C12.6182 15.4327 12.7659 15.5662 12.9441 15.6426C13.1223 15.719 13.3209 15.7341 13.5086 15.6855C13.6963 15.6368 13.8625 15.5272 13.9811 15.3739C14.0998 15.2205 14.1641 15.0321 14.1641 14.8382V5.71484M4.16406 9.04818H15.8307M4.16406 12.3815H15.8307" stroke="#A855F7" stroke-width="1.66667" stroke-linecap="round" stroke-linejoin="round"/>
</svg>
