<svg width="20" height="21" viewBox="0 0 20 21" fill="none" xmlns="http://www.w3.org/2000/svg">
<path d="M6.66667 14.8831H13.3333M9.18141 3.01976L3.52949 7.4157C3.15168 7.70955 2.96278 7.85648 2.82669 8.04048C2.70614 8.20347 2.61633 8.38708 2.56169 8.58231C2.5 8.8027 2.5 9.04201 2.5 9.52064V15.5498C2.5 16.4832 2.5 16.9499 2.68166 17.3064C2.84144 17.62 3.09641 17.875 3.41002 18.0348C3.76654 18.2164 4.23325 18.2164 5.16667 18.2164H14.8333C15.7668 18.2164 16.2335 18.2164 16.59 18.0348C16.9036 17.875 17.1586 17.62 17.3183 17.3064C17.5 16.9499 17.5 16.4832 17.5 15.5498V9.52064C17.5 9.04201 17.5 8.8027 17.4383 8.58231C17.3837 8.38708 17.2939 8.20347 17.1733 8.04048C17.0372 7.85648 16.8483 7.70955 16.4705 7.4157L10.8186 3.01976C10.5258 2.79205 10.3794 2.6782 10.2178 2.63443C10.0752 2.59581 9.92484 2.59581 9.78221 2.63443C9.62057 2.6782 9.47418 2.79205 9.18141 3.01976Z" stroke="#F56464" stroke-width="1.66667" stroke-linecap="round" stroke-linejoin="round"/>
</svg>
