<svg width="20" height="21" viewBox="0 0 20 21" fill="none" xmlns="http://www.w3.org/2000/svg">
<path d="M18.3307 19.0499H1.66406M11.6641 8.21653H8.33073M11.6641 13.2165H8.33073M5.4149 7.3832H5.4074M5.41573 10.7165H5.4074M5.41573 14.0499H5.4074M14.5816 7.3832H14.5741M14.5824 10.7165H14.5741M14.5824 14.0499H14.5741M17.4974 6.95403C17.4974 6.03903 17.4974 5.58237 17.2674 5.1957C17.0374 4.80903 16.6132 4.55737 15.7657 4.04987L14.6874 3.40487C13.3566 2.6082 12.6907 2.20987 12.1774 2.45653C11.6641 2.7032 11.6641 3.4207 11.6641 4.8557V19.0499H17.4974V6.95403ZM2.4974 6.95403C2.4974 6.03903 2.4974 5.58237 2.7274 5.1957C2.9574 4.80903 3.38156 4.55737 4.22906 4.04987L5.3074 3.40487C6.63906 2.60737 7.30406 2.2082 7.8174 2.4557C8.33073 2.7032 8.33073 3.4207 8.33073 4.8557V19.0499H2.4974V6.95403Z" stroke="#316DC0" stroke-width="1.5" stroke-linecap="round" stroke-linejoin="round"/>
</svg>
